<svg xmlns="http://www.w3.org/2000/svg" width="24.026" height="24.026" viewBox="0 0 24.026 24.026"><g transform="translate(-636 -7.102)"><g transform="translate(362.277 -7.521)"><path d="M297.749,26.636a12.013,12.013,0,1,1-12.013-12.013,12.013,12.013,0,0,1,12.013,12.013" transform="translate(0 0)" fill="#e2231a"/><path d="M286.468,32.947a7.014,7.014,0,0,1,3.654-.208l-1.707-3.85Zm-5.073,3.5,5.7-11.9a1.523,1.523,0,0,1,2.742,0l3.547,8.005A6.584,6.584,0,0,0,294.7,32V29.485a1.529,1.529,0,1,1,3.058,0v7.633a1.529,1.529,0,1,1-3.058,0v-2.34h0c-4.365,2.095-8.208-1.63-10.222,2.309-.6,1.338-.984,1.575-1.708,1.575a1.537,1.537,0,0,1-1.529-1.545A1.56,1.56,0,0,1,281.4,36.446Z" transform="translate(-3.766 -4.54)" fill="#fff"/><path d="M308.2,25.234a1.529,1.529,0,1,1,3.058,0v.391a1.529,1.529,0,1,1-3.058,0Z" transform="translate(-17.267 -4.54)" fill="#fff"/></g></g></svg>